# xmcd
#
# Track frame offsets:
#	150
#	12235
#	44750
#	78045
#
# Disc length: 1194 seconds
#
# Revision: 0
# Processed by: cddbd v1.4PL0 Copyright (c) Steve Scherf et al.
# Submitted via: dBpowerAMP V4.0
#
DISCID=2504a804
DTITLE=The Woolpackers - Line Dance Party
DYEAR=1900
DGENRE=Country
TTITLE0=Line Dance Party - Radio Mix
TTITLE1=Line Dance Party - Wand 12" remix
TTITLE2=Line Dance Party - Gapps Sleazesisters Dingle Jingle Mix
TTITLE3=Hillbilly Rock, Hillbilly Roll
EXTD=
EXTT0=
EXTT1=
EXTT2=
EXTT3=
PLAYORDER=
